<?xml version="1.0" encoding="utf-8"?>
<!-- Generator: Adobe Illustrator 22.0.1, SVG Export Plug-In . SVG Version: 6.00 Build 0)  -->
<svg version="1.1" id="icons" xmlns="http://www.w3.org/2000/svg" xmlns:xlink="http://www.w3.org/1999/xlink" x="0px" y="0px"
	 viewBox="0 0 512 432" style="enable-background:new 0 0 512 432;" xml:space="preserve">
<style type="text/css">
	.st0{fill:#57D1C7;}
</style>
<g>
	<path class="st0" d="M8,432h64h152h64h152h64c4.4,0,8-3.6,8-8v-24c0-14.6-9.4-24-24-24c-4.3,0-8.3,1.1-11.8,3.1
		C472,372.5,464.5,368,456,368c-2.8,0-5.5,0.6-8,1.5V248h16c0.8,0,1.7-0.1,2.5-0.4c0.1,0,0.2-0.1,0.3-0.2c0.6-0.2,1-0.5,1.5-0.9
		c0.4-0.2,0.8-0.4,1.1-0.8c0.4-0.4,0.6-0.8,1-1.2c0.3-0.4,0.6-0.8,0.8-1.2c0.2-0.4,0.3-0.9,0.4-1.4c0.1-0.5,0.3-1.1,0.3-1.6
		c0-0.1,0.1-0.2,0.1-0.3c0-0.5-0.2-0.9-0.3-1.3c-0.1-0.4,0-0.8-0.2-1.2l-24-72c0-0.1-0.1-0.2-0.2-0.3c-0.2-0.6-0.5-1-0.9-1.5
		c-0.3-0.4-0.5-0.8-0.8-1.1c-0.4-0.4-0.8-0.6-1.2-0.9c-0.4-0.3-0.8-0.6-1.3-0.9c-0.4-0.2-0.9-0.3-1.4-0.4c-0.5-0.1-1.1-0.3-1.7-0.3
		c-0.1,0-0.2-0.1-0.3-0.1H264v-16h20c0,0,0.1,0,0.1,0h12c0,0,0,0,0,0h16c4.4,0,8-3.6,8-8s-3.6-8-8-8h-6.8l6.3-43.9
		C322.1,75,328.1,62,328.1,48c0-26.5-21.5-48-48-48c-8.5,0-16.7,2.3-24,6.6c-7.3-4.3-15.6-6.6-24-6.6c-26.5,0-48,21.5-48,48
		c0,14.1,6,27,16.5,36.1l6.3,43.9h-6.8c-4.4,0-8,3.6-8,8s3.6,8,8,8h16c0,0,0,0,0,0h12c0,0,0.1,0,0.1,0H248v16H72
		c-0.1,0-0.2,0.1-0.3,0.1c-0.6,0-1.1,0.2-1.7,0.3c-0.5,0.1-0.9,0.2-1.4,0.4c-0.5,0.2-0.8,0.6-1.3,0.9c-0.4,0.3-0.8,0.6-1.2,0.9
		c-0.3,0.3-0.5,0.8-0.8,1.1c-0.3,0.5-0.7,1-0.9,1.5c0,0.1-0.1,0.2-0.2,0.3l-24,72c-0.1,0.4-0.1,0.8-0.2,1.2
		c-0.1,0.4-0.3,0.8-0.3,1.3c0,0.1,0.1,0.2,0.1,0.3c0,0.6,0.2,1.1,0.3,1.6c0.1,0.5,0.2,1,0.4,1.4c0.2,0.5,0.5,0.8,0.8,1.2
		c0.3,0.4,0.6,0.9,1,1.2c0.3,0.3,0.7,0.5,1.1,0.8c0.5,0.3,1,0.7,1.5,0.9c0.1,0,0.2,0.1,0.3,0.2c0.8,0.3,1.7,0.4,2.5,0.4h16v121.5
		c-2.5-0.9-5.2-1.5-8-1.5c-8.5,0-16,4.4-20.2,11.1c-3.5-2-7.5-3.1-11.8-3.1c-13.2,0-24,10.8-24,24v24C0,428.4,3.6,432,8,432L8,432z
		 M252.1,120v-20c0-2.2,1.8-4,4-4c2.2,0,4,1.8,4,4v20c0,2.8,0.6,5.5,1.5,8h-10.9C251.5,125.5,252.1,122.8,252.1,120L252.1,120z
		 M216,78.8c0-0.2-0.2-0.4-0.2-0.7c-0.2-0.8-0.4-1.5-0.8-2.2c-0.5-0.9-1.3-1.7-2.1-2.4c-8.1-6.1-12.8-15.4-12.8-25.6
		c0-17.6,14.4-32,32-32c6.9,0,13.5,2.3,19.2,6.6c2.8,2.2,6.8,2.2,9.6,0c5.7-4.3,12.3-6.6,19.2-6.6c17.6,0,32,14.4,32,32
		c0,10.2-4.7,19.5-12.8,25.6c-0.2,0.1-0.2,0.3-0.4,0.5c-0.6,0.5-1.2,1.1-1.7,1.9c-0.4,0.7-0.6,1.5-0.8,2.3c0,0.2-0.2,0.4-0.2,0.6
		l-7,49.1H284c-4.4,0-8-3.6-8-8v-20c0-11-9-20-20-20s-20,9-20,20v20c0,4.4-3.6,8-8,8H223L216,78.8z M232,416V296h48v120H232z
		 M456,384c4.4,0,8,3.6,8,8v8c0,4.4,3.6,8,8,8s8-3.6,8-8c0-4.4,3.6-8,8-8c6.6,0,8,3.2,8,8v16h-48v-24.1
		C448.1,387.5,451.6,384,456,384z M72,232C72,232,72,232,72,232c-0.1,0-0.1,0-0.2,0H59.1l2.7-8h388.6l2.7,8h-12.8c0,0,0,0-0.1,0
		s0,0-0.1,0H72z M434.3,176l2.7,8H75l2.7-8H434.3z M69.7,200h372.6l2.7,8H67L69.7,200z M432,248v143.7c0,0.1,0,0.2,0,0.2v8
		c0,0,0,0.1,0,0.1V416H296V288c0-4.4-3.6-8-8-8h-64c-4.4,0-8,3.6-8,8v128H80v-15.9c0,0,0-0.1,0-0.1v-8c0-0.1,0-0.2,0-0.2V248H432z
		 M24,392c4.4,0,8,3.6,8,8c0,4.4,3.6,8,8,8s8-3.6,8-8v-8c0-4.4,3.6-8,8-8c4.4,0,7.9,3.5,8,7.9V416H16v-16C16,395.6,19.6,392,24,392z
		"/>
	<path class="st0" d="M96,376.1h104c4.4,0,8-3.6,8-8v-80c0-4.4-3.6-8-8-8H96c-4.4,0-8,3.6-8,8v80C88,372.5,91.6,376.1,96,376.1z
		 M104,352c2.8,0,5.4-0.5,8-1.1v9.2h-8V352z M160,320c0,8,3.1,15.3,8,20.9v19.1h-40V341c4.9-5.6,8-12.9,8-20.9v-24h24V320z
		 M184,360.1v-9.2c2.6,0.7,5.2,1.1,8,1.1h0v8H184z M192,336c-8.8,0-16-7.2-16-16v-24h16V336z M104,296h16v24c0,8.8-7.2,16-16,16V296
		z"/>
	<path class="st0" d="M312,376.1h104c4.4,0,8-3.6,8-8v-80c0-4.4-3.6-8-8-8H312c-4.4,0-8,3.6-8,8v80C304,372.5,307.6,376.1,312,376.1
		z M320,352c2.8,0,5.4-0.5,8-1.1v9.2h-8V352z M376,320c0,8,3.1,15.3,8,20.9v19.1h-40V341c4.9-5.6,8-12.9,8-20.9v-24h24V320z
		 M408,360.1h-8v-9.2c2.6,0.7,5.2,1.1,8,1.1V360.1z M408,336c-8.8,0-16-7.2-16-16v-24h16V336z M336,296v24c0,8.8-7.2,16-16,16h0v-40
		H336z"/>
	<path class="st0" d="M264,312h-16c-4.4,0-8,3.6-8,8s3.6,8,8,8h16c4.4,0,8-3.6,8-8S268.4,312,264,312z"/>
	<path class="st0" d="M225.3,272.1H288c4.4,0,8-3.6,8-8s-3.6-8-8-8h-62.7c-4.4,0-8,3.6-8,8S220.9,272.1,225.3,272.1z"/>
</g>
</svg>
