<?xml version="1.0" encoding="utf-8"?>
<!-- Generator: Adobe Illustrator 22.0.1, SVG Export Plug-In . SVG Version: 6.00 Build 0)  -->
<svg version="1.1" id="Camada_1" xmlns="http://www.w3.org/2000/svg" xmlns:xlink="http://www.w3.org/1999/xlink" x="0px" y="0px"
	 viewBox="0 0 512 512" style="enable-background:new 0 0 512 512;" xml:space="preserve">
<style type="text/css">
	.st0{fill:#FFFFFF;}
</style>
<path class="st0" d="M256,509.9h-0.1c-39.9,0-79.6-9.4-115-27.3L31.4,507.5c-6.7,1.5-13.7-0.5-18.5-5.3S6,490.4,7.5,483.7
	l23.7-107.8C10.8,338.3,0.1,297.1,0,256.3c0-0.1,0-0.3,0-0.4c0-67.7,26.8-131.4,75.4-179.5C123.8,28.4,188,2,256,2
	c68.2,0,132.2,26.5,180.4,74.4c48.8,48.6,75.7,112.4,75.7,179.6c0,50.8-15.2,99.9-44,142c-6.2,9.1-18.7,11.4-27.8,5.2
	c-9.1-6.2-11.4-18.7-5.2-27.8c24.2-35.4,37-76.7,37.1-119.4c0-56.5-22.7-110.2-63.9-151.3C367.5,64.3,313.5,42,256,42
	C137.1,42,40.2,137.7,40,255.5c0,0.1,0,0.3,0,0.4c0,36.5,10.2,73.4,29.6,106.9c2.5,4.3,3.3,9.4,2.2,14.3l-18.6,84.4l85.8-19.5
	c4.7-1.1,9.7-0.4,14,1.9c31.4,17,66.9,26,102.8,26.1h0.1c39,0,77.3-10.5,110.8-30.5c9.5-5.7,21.8-2.6,27.4,6.9s2.6,21.8-6.9,27.4
	C347.6,497.4,302.2,509.9,256,509.9L256,509.9z M199.5,154.2c-4.4-9.7-9-10.1-13.2-10.2h-11.2c-3.9,0-10.2,1.5-15.6,7.3
	c-5.4,5.8-20.5,20-20.5,48.7s21,56.5,23.9,60.4c2.9,3.9,40.5,64.7,100,88.1c49.5,19.4,59.5,15.6,70.3,14.6
	c10.7-1,34.6-14.1,39.5-27.7c4.9-13.6,4.9-25.3,3.4-27.7c-1.5-2.4-5.4-3.9-11.2-6.8c-5.9-2.9-34.6-17.3-39.9-19.2s-9.3-2.9-13.2,2.9
	c-3.9,5.8-15.4,19.3-18.8,23.2c-3.4,3.9-6.8,4.4-12.7,1.5c-5.9-2.9-24.5-9.2-46.9-29.1c-17.4-15.5-29.5-35.2-32.9-41
	c-3.4-5.8-0.4-9,2.6-11.9c2.6-2.6,6.2-6.2,9.1-9.6c2.9-3.4,3.8-5.8,5.7-9.7c2-3.9,1-7.3-0.5-10.2C216,194.6,204.7,165.8,199.5,154.2
	"/>
</svg>
